# Blender v2.76 (sub 0) OBJ File: 'bubba.blend'
# www.blender.org
mtllib bubba.mtl
o Cube
v 0.250835 0.000000 -0.516478
v 0.966396 0.000000 -0.516478
v 0.966396 0.000000 0.331246
v 0.250835 0.000000 0.331246
v 0.182081 0.281995 -0.585233
v 1.035150 0.281995 -0.585232
v 1.035150 0.281995 0.400000
v 0.182081 0.281995 0.400000
v 0.293312 0.737953 -0.142215
v 0.870850 0.737953 -0.142215
v 0.293312 0.737953 0.292280
v 0.870849 0.737953 0.292280
v 0.293312 1.141893 -0.343962
v 0.870850 1.141893 -0.343962
v 0.293312 1.141893 0.090533
v 0.870849 1.141893 0.090533
v 0.258645 1.363989 -0.343962
v 0.905516 1.542799 -0.343962
v 0.258645 1.363989 0.090533
v 0.905516 1.542798 0.090533
v 0.784040 1.964904 -0.669855
v 0.784039 1.964904 0.334644
v 0.702444 2.404969 -0.576564
v 0.702443 2.404969 0.410991
v 0.815626 2.761009 -0.515055
v 0.815626 2.761010 0.258006
v 0.896425 3.237926 -0.458707
v 0.896425 3.226252 0.076292
v 0.273740 3.518070 -0.460010
v 0.208911 3.634522 -0.022205
v 0.448212 3.394337 0.030690
v 0.448213 3.436182 -0.486881
v 1.039368 2.413949 -0.344278
v 1.143360 2.413949 0.193459
v 1.366056 2.751336 -0.257788
v 1.470049 2.751336 0.132978
v 1.245504 1.679695 -0.675036
v 1.299466 1.679695 -0.277538
v 1.523670 1.854767 -0.712798
v 1.577632 1.854767 -0.315300
v 0.372121 3.632578 -0.561211
v 0.157014 3.808103 -0.082326
v 0.328258 3.816197 -0.528380
v 0.187105 3.908426 -0.199952
v 0.431478 3.501914 -0.789274
v 0.387615 3.685533 -0.848381
v 0.343438 3.558399 -0.967524
v 0.322113 3.649173 -0.991074
v -0.250835 0.000000 -0.516478
v -0.966396 0.000000 -0.516478
v -0.966396 0.000000 0.331246
v -0.250835 0.000000 0.331246
v -0.182081 0.281995 -0.585233
v -1.035150 0.281995 -0.585232
v -1.035150 0.281995 0.400000
v -0.182081 0.281995 0.400000
v -0.293312 0.737953 -0.142215
v -0.870850 0.737953 -0.142215
v -0.293312 0.737953 0.292280
v -0.870849 0.737953 0.292280
v -0.293312 1.141893 -0.343962
v -0.870850 1.141893 -0.343962
v -0.293312 1.141893 0.090533
v -0.870849 1.141893 0.090533
v -0.258645 1.363989 -0.343962
v -0.905516 1.542799 -0.343962
v -0.258645 1.363989 0.090533
v -0.905516 1.542798 0.090533
v -0.000000 1.786095 -0.669855
v -0.784040 1.964904 -0.669855
v 0.000000 1.786095 0.419433
v -0.784039 1.964904 0.334644
v -0.000000 2.226160 -0.741073
v -0.702444 2.404969 -0.576564
v 0.000000 2.226160 0.509361
v -0.702443 2.404969 0.410992
v -0.000000 3.002010 -0.629766
v -0.815626 2.761009 -0.515055
v 0.000000 3.002010 0.258006
v -0.815626 2.761010 0.258006
v -0.000000 3.357637 -0.515055
v -0.896425 3.237926 -0.458707
v 0.000000 3.323079 0.112004
v -0.896425 3.226252 0.076292
v -0.273740 3.518070 -0.460010
v -0.208911 3.634522 -0.022205
v -0.448212 3.394337 0.030690
v -0.448213 3.436182 -0.486881
v -0.000000 3.655671 -0.024363
v -0.000000 3.472976 -0.488184
v -1.039368 2.413949 -0.344277
v -1.143360 2.413949 0.193459
v -1.366056 2.751336 -0.257788
v -1.470049 2.751336 0.132978
v -1.245504 1.679695 -0.675036
v -1.299466 1.679695 -0.277538
v -1.523670 1.854767 -0.712798
v -1.577632 1.854767 -0.315300
v -0.000000 3.525183 -0.616822
v -0.372121 3.632578 -0.561211
v -0.157014 3.808103 -0.082326
v -0.000000 3.730850 -0.016480
v -0.000000 3.997877 -0.583992
v -0.328258 3.816197 -0.528380
v -0.187105 3.908426 -0.199952
v -0.000000 3.924223 -0.049733
v -0.000000 3.203587 -0.869143
v -0.431478 3.501914 -0.789274
v -0.000000 3.867213 -0.903992
v -0.387615 3.685533 -0.848381
v -0.000000 3.415841 -1.014636
v -0.343438 3.558399 -0.967524
v -0.000000 3.738909 -1.012982
v -0.322113 3.649173 -0.991074
vt 0.658803 0.960014
vt 0.551551 0.958932
vt 0.551551 0.832115
vt 0.408293 0.816204
vt 0.520283 0.816204
vt 0.469926 0.871294
vt 0.578596 0.079540
vt 0.446077 0.077782
vt 0.456486 0.035928
vt 0.416108 0.783212
vt 0.202690 0.117325
vt 0.070282 0.117325
vt 0.082333 0.076659
vt 0.703693 0.476183
vt 0.835768 0.476183
vt 0.846480 0.518768
vt 0.088247 0.187028
vt 0.177889 0.187028
vt 0.179934 0.250699
vt 0.555241 0.148877
vt 0.465524 0.147687
vt 0.829697 0.586321
vt 0.762003 0.586321
vt 0.798265 0.646744
vt 0.798265 0.680170
vt 0.730571 0.680170
vt 0.492858 0.917210
vt 0.443470 0.917210
vt 0.556844 0.208724
vt 0.467128 0.207534
vt 0.312708 0.817713
vt 0.350270 0.868347
vt 0.234482 0.868339
vt 0.492858 0.962950
vt 0.443470 0.962950
vt 0.561807 0.242033
vt 0.184663 0.310277
vt 0.084550 0.283704
vt 0.161851 0.368598
vt 0.147447 0.432617
vt 0.037392 0.404269
vt 0.605014 0.304758
vt 0.482878 0.329903
vt 0.849507 0.744827
vt 0.679797 0.744827
vt 0.339513 0.919937
vt 0.332420 0.963001
vt 0.243309 0.962995
vt 0.605014 0.370403
vt 0.202495 0.978498
vt 0.046314 0.962074
vt 0.089589 0.882279
vt 0.493620 0.396209
vt 0.602229 0.486848
vt 0.166485 0.488289
vt 0.041817 0.524104
vt 0.693758 0.361705
vt 0.686322 0.291174
vt 0.769386 0.291926
vt 0.530097 0.551329
vt 0.474637 0.449444
vt 0.111472 0.586510
vt 0.600204 0.540414
vt 0.599669 0.557755
vt 0.556728 0.564025
vt 0.040930 0.574453
vt 0.074646 0.623158
vt 0.773853 0.364777
vt 0.769669 0.393507
vt 0.218783 0.437878
vt 0.250517 0.337265
vt 0.293913 0.363964
vt 0.269750 0.489109
vt 0.460516 0.520821
vt 0.386126 0.447635
vt 0.679304 0.180971
vt 0.740464 0.194241
vt 0.110645 0.724861
vt 0.029156 0.724595
vt 0.029375 0.657388
vt 0.756280 0.098213
vt 0.438533 0.397556
vt 0.368696 0.311768
vt 0.800641 0.880058
vt 0.825302 0.895164
vt 0.787130 0.916842
vt 0.866484 0.819817
vt 0.858938 0.769278
vt 0.883962 0.764698
vt 0.787725 0.846819
vt 0.764978 0.885445
vt 0.896140 0.838631
vt 0.882882 0.946502
vt 0.885570 0.874029
vt 0.946823 0.824099
vt 0.949675 0.859702
vt 0.950616 0.943959
vt 0.949051 0.725485
vt 0.967709 0.362489
vt 0.967709 0.459348
vt 0.889063 0.429810
vt 0.952659 0.509816
vt 0.845375 0.442350
vt 0.833210 0.378226
vt 0.883323 0.407248
vt 0.951579 0.293826
vt 0.658803 0.833197
vt 0.420538 0.871294
vt 0.090293 0.250699
vt 0.730571 0.646744
vt 0.460980 0.267460
vt 0.039312 0.340495
vt 0.225677 0.919929
vt 0.200839 0.880660
vt 0.180703 0.560708
vt 0.042215 0.626340
vt 0.700870 0.410898
vt 0.110864 0.657654
vt 0.818286 0.105047
vt 0.411797 0.286254
vt 0.567643 0.037402
vt 0.512467 0.783212
vt 0.193398 0.076659
vt 0.692981 0.518768
vt 0.262624 0.817710
vt 0.757796 0.873257
vn 0.000000 -1.000000 0.000000
vn 0.940800 0.339000 0.000000
vn 0.000000 -0.236900 -0.971500
vn 0.971500 -0.236900 0.000000
vn -0.000000 -0.236900 0.971500
vn -0.971500 -0.236900 -0.000000
vn -0.000000 0.446800 0.894600
vn 0.000000 0.696900 -0.717200
vn -0.000000 0.229900 0.973200
vn -0.971500 0.237000 -0.000000
vn -0.988000 -0.154200 -0.000000
vn -1.000000 -0.000000 -0.000000
vn 1.000000 0.000000 0.000000
vn 0.000000 -0.446800 -0.894600
vn 0.961000 0.276600 0.000000
vn 0.996300 -0.086100 0.000000
vn 0.000000 0.000000 -1.000000
vn -0.000000 0.000000 1.000000
vn 0.171600 -0.137400 0.975500
vn 0.126900 -0.556300 -0.821200
vn 0.129400 -0.468200 0.874100
vn -0.852700 -0.522500 -0.000000
vn 0.953000 -0.303000 0.000000
vn 0.983200 0.182300 0.000000
vn 0.036400 -0.159600 -0.986500
vn -0.840500 -0.541800 -0.000000
vn 0.192000 0.139400 -0.971400
vn 0.107400 0.363500 0.925400
vn 0.349200 0.936800 0.020400
vn 0.177600 0.137300 -0.974500
vn 0.116600 0.394800 0.911300
vn 0.062700 0.226500 -0.972000
vn 0.118600 0.324800 0.938300
vn 0.432900 0.898500 0.072600
vn 0.386100 -0.438500 0.811600
vn 0.187600 -0.005500 0.982200
vn 0.423700 0.035200 -0.905100
vn 0.638400 0.750800 -0.169900
vn 0.524400 -0.848500 -0.071200
vn 0.938700 0.237500 -0.249800
vn -0.194900 0.416400 -0.888000
vn -0.938500 -0.320900 0.127400
vn 0.545600 0.563600 0.620300
vn 0.187900 -0.910100 -0.369400
vn 0.196800 0.372900 0.906800
vn 0.829000 -0.289400 0.478500
vn 0.189800 0.972600 0.134100
vn 0.922600 0.157400 0.352300
vn 0.960000 0.261500 0.100000
vn 0.440100 0.856900 -0.268300
vn 0.270700 -0.594200 0.757400
vn 0.069300 0.005100 -0.997600
vn 0.435100 0.804300 -0.404700
vn 0.903600 0.080400 -0.420800
vn 0.328500 -0.534000 -0.779000
vn -0.940800 0.339000 0.000000
vn 0.971500 0.237000 -0.000000
vn 0.988000 -0.154200 -0.000000
vn -0.961000 0.276600 0.000000
vn -0.996300 -0.086100 0.000000
vn -0.171600 -0.137400 0.975500
vn -0.126900 -0.556300 -0.821200
vn -0.208000 -0.518700 0.829300
vn 0.852700 -0.522500 0.000000
vn -0.953000 -0.303000 0.000000
vn -0.983200 0.182300 0.000000
vn -0.164900 0.233700 -0.958200
vn 0.707400 -0.693400 0.136800
vn -0.171500 0.114500 -0.978500
vn -0.107400 0.363500 0.925400
vn -0.349200 0.936800 0.020400
vn -0.006000 0.307000 -0.951700
vn -0.039200 0.357600 0.933000
vn -0.062700 0.226500 -0.972000
vn -0.028800 0.379200 0.924900
vn -0.714800 0.694800 -0.079000
vn -0.386100 -0.438500 0.811600
vn -0.187600 -0.005500 0.982200
vn -0.414600 -0.172400 -0.893500
vn -0.638400 0.750800 -0.169900
vn -0.524400 -0.848500 -0.071200
vn -0.963000 0.235600 -0.130700
vn 0.318700 0.313500 -0.894500
vn 0.938500 -0.320900 0.127400
vn -0.545600 0.563600 0.620300
vn -0.305500 -0.764300 -0.567900
vn -0.196800 0.372900 0.906800
vn -0.829000 -0.289400 0.478500
vn -0.488500 0.871900 -0.034900
vn -0.922600 0.157400 0.352300
vn -0.960000 0.261500 0.100000
vn -0.440100 0.856900 -0.268300
vn -0.270700 -0.594200 0.757400
vn -0.069300 0.005100 -0.997600
vn -0.226200 0.630600 -0.742400
vn -0.894900 0.097200 -0.435600
vn -0.328500 -0.534000 -0.779000
vn 0.149900 -0.198000 0.968700
vn 0.158800 -0.574300 -0.803100
vn 0.208000 -0.518700 0.829300
vn 0.164900 0.233700 -0.958200
vn -0.707400 -0.693400 0.136800
vn 0.171500 0.114500 -0.978500
vn 0.054700 0.307700 0.949900
vn 0.399500 0.913700 0.073900
vn 0.106000 0.098900 -0.989400
vn 0.006000 0.307000 -0.951700
vn 0.098800 0.411900 0.905800
vn 0.039200 0.357600 0.933000
vn 0.003700 0.318900 -0.947800
vn 0.028800 0.379200 0.924900
vn 0.714800 0.694800 -0.079000
vn 0.498100 -0.339200 0.798000
vn 0.181800 0.330200 0.926200
vn 0.414600 -0.172400 -0.893500
vn 0.716300 0.697600 0.015200
vn 0.963000 0.235600 -0.130700
vn -0.318700 0.313500 -0.894500
vn -0.932200 -0.313800 0.180300
vn 0.313300 0.160900 0.935900
vn 0.305500 -0.764300 -0.567900
vn -0.020800 -0.104300 0.994300
vn 0.950500 0.304900 0.059700
vn 0.488500 0.871900 -0.034900
vn 0.921300 0.146100 0.360300
vn 0.972100 0.215700 0.092200
vn 0.499400 0.802100 -0.327500
vn 0.163500 -0.837000 0.522100
vn 0.213400 -0.198100 -0.956700
vn 0.226200 0.630600 -0.742400
vn 0.894900 0.097200 -0.435600
vn 0.555700 -0.673200 -0.487800
vn -0.149900 -0.198000 0.968700
vn -0.158800 -0.574300 -0.803100
vn -0.129400 -0.468200 0.874100
vn -0.036400 -0.159600 -0.986500
vn 0.840500 -0.541800 -0.000000
vn -0.192000 0.139400 -0.971400
vn -0.054700 0.307700 0.949900
vn -0.399500 0.913700 0.073900
vn -0.177600 0.137300 -0.974500
vn -0.106000 0.098900 -0.989400
vn -0.116600 0.394800 0.911300
vn -0.098800 0.411900 0.905800
vn -0.003700 0.318900 -0.947800
vn -0.118600 0.324800 0.938300
vn -0.432900 0.898500 0.072600
vn -0.498100 -0.339200 0.798000
vn -0.181800 0.330200 0.926200
vn -0.423700 0.035200 -0.905100
vn -0.716300 0.697600 0.015200
vn -0.938700 0.237500 -0.249800
vn 0.194900 0.416400 -0.888000
vn 0.932200 -0.313800 0.180300
vn -0.313300 0.160900 0.935900
vn -0.187900 -0.910100 -0.369400
vn 0.020800 -0.104300 0.994300
vn -0.950500 0.304900 0.059700
vn -0.189800 0.972600 0.134100
vn -0.921300 0.146100 0.360300
vn -0.972100 0.215700 0.092200
vn -0.499400 0.802100 -0.327500
vn -0.163500 -0.837000 0.522100
vn -0.213400 -0.198100 -0.956700
vn -0.435100 0.804300 -0.404700
vn -0.903600 0.080400 -0.420800
vn -0.555700 -0.673200 -0.487800
usemtl Material
s off
f 1/1/1 2/2/1 3/3/1
f 7/4/2 6/5/2 10/6/2
f 5/7/3 6/8/3 2/9/3
f 6/5/4 7/4/4 3/10/4
f 7/11/5 8/12/5 4/13/5
f 1/14/6 4/15/6 8/16/6
f 11/17/7 12/18/7 16/19/7
f 5/7/8 9/20/8 10/21/8
f 8/12/9 7/11/9 12/18/9
f 8/16/10 11/22/10 9/23/10
f 15/24/11 19/25/11 17/26/11
f 9/23/12 11/22/12 15/24/12
f 10/6/13 14/27/13 16/28/13
f 9/20/14 13/29/14 14/30/14
f 18/31/15 21/32/15 22/33/15
f 14/27/16 18/34/16 20/35/16
f 14/30/17 13/29/17 17/36/17
f 16/19/18 20/37/18 19/38/18
f 22/39/19 24/40/19 75/41/19
f 17/36/20 69/42/20 21/43/20
f 19/38/21 20/37/21 22/39/21
f 19/25/22 71/44/22 69/45/22
f 23/46/23 25/47/23 26/48/23
f 22/33/24 21/32/24 23/46/24
f 21/43/25 69/42/25 73/49/25
f 26/50/26 25/51/26 33/52/26
f 23/53/27 73/49/27 77/54/27
f 24/40/28 26/55/28 79/56/28
f 31/57/29 28/58/29 27/59/29
f 77/54/30 32/60/30 25/61/30
f 26/55/31 31/62/31 79/56/31
f 81/63/32 90/64/32 29/65/32
f 83/66/33 31/62/33 30/67/33
f 31/57/34 32/68/34 29/69/34
f 34/70/35 38/71/35 40/72/35
f 26/55/36 34/70/36 36/73/36
f 25/61/37 27/74/37 35/75/37
f 28/58/38 36/76/38 35/77/38
f 38/78/39 37/79/39 39/80/39
f 35/77/40 36/76/40 40/81/40
f 33/82/41 35/75/41 39/83/41
f 33/52/42 37/79/42 38/78/42
f 42/84/43 44/85/43 106/86/43
f 29/87/44 90/88/44 99/89/44
f 30/90/45 42/84/45 102/91/45
f 29/87/46 41/92/46 42/84/46
f 103/93/47 106/86/47 44/85/47
f 41/92/48 43/94/48 44/85/48
f 41/92/49 45/95/49 46/96/49
f 43/94/50 46/96/50 109/97/50
f 99/89/51 107/98/51 45/95/51
f 111/99/52 113/100/52 48/101/52
f 109/102/53 46/103/53 48/101/53
f 46/103/54 45/104/54 47/105/54
f 107/106/55 111/99/55 47/105/55
f 49/1/1 52/107/1 51/3/1
f 55/4/56 60/108/56 58/6/56
f 50/9/3 54/8/3 53/7/3
f 51/10/6 55/4/6 54/5/6
f 52/13/5 56/12/5 55/11/5
f 56/16/4 52/15/4 49/14/4
f 63/109/7 64/19/7 60/18/7
f 58/21/8 57/20/8 53/7/8
f 56/12/9 59/17/9 60/18/9
f 57/23/57 59/22/57 56/16/57
f 65/26/58 67/25/58 63/24/58
f 57/23/13 61/110/13 63/24/13
f 64/28/12 62/27/12 58/6/12
f 62/30/14 61/29/14 57/20/14
f 72/33/59 70/32/59 66/31/59
f 68/35/60 66/34/60 62/27/60
f 62/30/17 66/111/17 65/36/17
f 67/38/18 68/37/18 64/19/18
f 75/41/61 76/40/61 72/39/61
f 70/43/62 69/42/62 65/36/62
f 67/38/63 71/112/63 72/39/63
f 69/45/64 71/44/64 67/25/64
f 80/48/65 78/47/65 74/46/65
f 72/33/66 76/113/66 74/46/66
f 70/43/67 74/53/67 73/49/67
f 80/50/68 92/114/68 91/52/68
f 74/53/69 78/61/69 77/54/69
f 79/56/70 80/55/70 76/40/70
f 82/59/71 84/58/71 87/57/71
f 88/60/72 81/63/72 77/54/72
f 87/62/73 84/115/73 80/55/73
f 85/65/74 90/64/74 81/63/74
f 83/66/75 89/116/75 86/67/75
f 87/57/76 86/117/76 85/69/76
f 98/72/77 96/71/77 92/70/77
f 94/73/78 92/70/78 80/55/78
f 78/61/79 91/82/79 93/75/79
f 93/77/80 94/76/80 84/58/80
f 96/78/81 98/118/81 97/80/81
f 93/77/82 97/119/82 98/81/82
f 91/82/83 95/120/83 97/83/83
f 96/78/84 95/79/84 91/52/84
f 106/86/85 105/85/85 101/84/85
f 85/87/86 100/92/86 99/89/86
f 102/91/87 101/84/87 86/90/87
f 101/84/88 100/92/88 85/87/88
f 103/93/89 104/94/89 105/85/89
f 105/85/90 104/94/90 100/92/90
f 110/96/91 108/95/91 100/92/91
f 109/97/92 110/96/92 104/94/92
f 108/95/93 107/98/93 99/89/93
f 114/101/94 113/100/94 111/99/94
f 109/102/95 113/100/95 114/101/95
f 110/103/96 114/101/96 112/105/96
f 112/105/97 111/99/97 107/106/97
f 4/107/1 1/1/1 3/3/1
f 12/108/2 7/4/2 10/6/2
f 1/121/3 5/7/3 2/9/3
f 2/122/4 6/5/4 3/10/4
f 3/123/5 7/11/5 4/13/5
f 5/124/6 1/14/6 8/16/6
f 15/109/7 11/17/7 16/19/7
f 6/8/8 5/7/8 10/21/8
f 11/17/9 8/12/9 12/18/9
f 5/124/10 8/16/10 9/23/10
f 13/110/11 15/24/11 17/26/11
f 13/110/12 9/23/12 15/24/12
f 12/108/13 10/6/13 16/28/13
f 10/21/14 9/20/14 14/30/14
f 20/125/15 18/31/15 22/33/15
f 16/28/16 14/27/16 20/35/16
f 18/111/17 14/30/17 17/36/17
f 15/109/18 16/19/18 19/38/18
f 71/112/98 22/39/98 75/41/98
f 18/111/99 17/36/99 21/43/99
f 71/112/100 19/38/100 22/39/100
f 17/26/22 19/25/22 69/45/22
f 24/113/23 23/46/23 26/48/23
f 24/113/24 22/33/24 23/46/24
f 23/53/101 21/43/101 73/49/101
f 34/114/102 26/50/102 33/52/102
f 25/61/103 23/53/103 77/54/103
f 75/41/104 24/40/104 79/56/104
f 32/68/105 31/57/105 27/59/105
f 27/74/106 25/61/106 32/60/106
f 77/54/107 81/63/107 32/60/107
f 83/66/108 79/56/108 31/62/108
f 26/55/109 28/115/109 31/62/109
f 32/60/110 81/63/110 29/65/110
f 89/116/111 83/66/111 30/67/111
f 30/117/112 31/57/112 29/69/112
f 36/73/113 34/70/113 40/72/113
f 28/115/114 26/55/114 36/73/114
f 33/82/115 25/61/115 35/75/115
f 27/59/116 28/58/116 35/77/116
f 40/118/39 38/78/39 39/80/39
f 39/119/117 35/77/117 40/81/117
f 37/120/118 33/82/118 39/83/118
f 34/114/119 33/52/119 38/78/119
f 102/91/120 42/84/120 106/86/120
f 41/92/121 29/87/121 99/89/121
f 89/126/122 30/90/122 102/91/122
f 30/90/123 29/87/123 42/84/123
f 43/94/124 103/93/124 44/85/124
f 42/84/125 41/92/125 44/85/125
f 43/94/126 41/92/126 46/96/126
f 103/93/127 43/94/127 109/97/127
f 41/92/128 99/89/128 45/95/128
f 47/105/129 111/99/129 48/101/129
f 113/100/130 109/102/130 48/101/130
f 48/101/131 46/103/131 47/105/131
f 45/104/132 107/106/132 47/105/132
f 50/2/1 49/1/1 51/3/1
f 54/5/56 55/4/56 58/6/56
f 49/121/3 50/9/3 53/7/3
f 50/122/6 51/10/6 54/5/6
f 51/123/5 52/13/5 55/11/5
f 53/124/4 56/16/4 49/14/4
f 59/17/7 63/109/7 60/18/7
f 54/8/8 58/21/8 53/7/8
f 55/11/9 56/12/9 60/18/9
f 53/124/57 57/23/57 56/16/57
f 61/110/58 65/26/58 63/24/58
f 59/22/13 57/23/13 63/24/13
f 60/108/12 64/28/12 58/6/12
f 58/21/14 62/30/14 57/20/14
f 68/125/59 72/33/59 66/31/59
f 64/28/60 68/35/60 62/27/60
f 61/29/17 62/30/17 65/36/17
f 63/109/18 67/38/18 64/19/18
f 71/112/133 75/41/133 72/39/133
f 66/111/134 70/43/134 65/36/134
f 68/37/135 67/38/135 72/39/135
f 65/26/64 69/45/64 67/25/64
f 76/113/65 80/48/65 74/46/65
f 70/32/66 72/33/66 74/46/66
f 69/42/136 70/43/136 73/49/136
f 78/51/137 80/50/137 91/52/137
f 73/49/138 74/53/138 77/54/138
f 75/41/139 79/56/139 76/40/139
f 88/68/140 82/59/140 87/57/140
f 77/54/141 78/61/141 88/60/141
f 82/74/142 88/60/142 78/61/142
f 80/55/143 79/56/143 87/62/143
f 83/66/144 87/62/144 79/56/144
f 88/60/145 85/65/145 81/63/145
f 87/62/146 83/66/146 86/67/146
f 88/68/147 87/57/147 85/69/147
f 94/73/148 98/72/148 92/70/148
f 84/115/149 94/73/149 80/55/149
f 82/74/150 78/61/150 93/75/150
f 82/59/151 93/77/151 84/58/151
f 95/79/81 96/78/81 97/80/81
f 94/76/152 93/77/152 98/81/152
f 93/75/153 91/82/153 97/83/153
f 92/114/154 96/78/154 91/52/154
f 102/91/155 106/86/155 101/84/155
f 90/88/156 85/87/156 99/89/156
f 89/126/157 102/91/157 86/90/157
f 86/90/158 101/84/158 85/87/158
f 106/86/159 103/93/159 105/85/159
f 101/84/160 105/85/160 100/92/160
f 104/94/161 110/96/161 100/92/161
f 103/93/162 109/97/162 104/94/162
f 100/92/163 108/95/163 99/89/163
f 112/105/164 114/101/164 111/99/164
f 110/103/165 109/102/165 114/101/165
f 108/104/166 110/103/166 112/105/166
f 108/104/167 112/105/167 107/106/167
