# Blender v2.76 (sub 0) OBJ File: 'monster.blend'
# www.blender.org
mtllib monster.mtl
o Cube
v -0.083774 0.000000 0.335711
v -0.496875 0.000000 0.335711
v -0.496875 0.000000 -0.215310
v -0.083774 0.000000 -0.215310
v -0.042521 0.197396 0.380401
v -0.538128 0.197396 0.380401
v -0.538128 0.197396 -0.260000
v -0.042521 0.197396 -0.260000
v -0.109260 0.516567 0.092440
v -0.439548 0.516567 0.092440
v -0.109260 0.516567 -0.189982
v -0.439547 0.516567 -0.189982
v -0.109260 0.799325 0.223576
v -0.439548 0.799325 0.223575
v -0.109260 0.799325 -0.058846
v -0.439547 0.799325 -0.058846
v -0.088460 0.954793 0.223576
v -0.460348 1.079959 0.223575
v -0.088460 0.954793 -0.058846
v -0.460347 1.079959 -0.058846
v -0.387462 1.375433 0.435406
v -0.387461 1.375433 -0.217518
v -0.338504 1.683478 0.374766
v -0.338503 1.683478 -0.267144
v -0.406414 1.932706 0.334786
v -0.406413 1.932707 -0.167704
v -0.454893 2.266548 0.298160
v -0.454893 2.258377 -0.049590
v -0.164244 2.462649 0.299006
v -0.125346 2.544165 0.014434
v -0.268927 2.376036 -0.019948
v -0.268928 2.405327 0.316473
v -0.540658 1.689764 0.223780
v -0.603054 1.689764 -0.125748
v -0.736672 1.925935 0.221576
v -0.711725 1.925935 -0.086436
v -0.664340 1.175787 0.438773
v -0.696717 1.175787 0.180399
v -0.831240 1.298337 0.463319
v -0.863617 1.298337 0.204945
v -0.223272 2.542804 0.364787
v -0.094208 2.665672 0.053512
v -0.196955 2.671338 0.343447
v -0.112263 2.735898 0.129969
v -0.258887 2.451339 0.513028
v -0.232569 2.579873 0.551447
v -0.172853 2.490880 0.628891
v -0.148117 2.554421 0.644198
v 0.083774 0.000000 0.335711
v 0.496875 0.000000 0.335711
v 0.496875 0.000000 -0.215310
v 0.083774 0.000000 -0.215310
v 0.042521 0.197396 0.380401
v 0.538128 0.197396 0.380401
v 0.538128 0.197396 -0.260000
v 0.042521 0.197396 -0.260000
v 0.109260 0.516567 0.092440
v 0.439548 0.516567 0.092440
v 0.109260 0.516567 -0.189982
v 0.439547 0.516567 -0.189982
v 0.109260 0.799325 0.223576
v 0.439548 0.799325 0.223575
v 0.109260 0.799325 -0.058846
v 0.439547 0.799325 -0.058846
v 0.088460 0.954793 0.223576
v 0.460348 1.079959 0.223575
v 0.088460 0.954793 -0.058846
v 0.460347 1.079959 -0.058846
v 0.000000 1.250266 0.435406
v 0.387462 1.375433 0.435406
v -0.000000 1.250266 -0.272631
v 0.387461 1.375433 -0.217518
v 0.000000 1.558312 0.481697
v 0.338504 1.683478 0.374766
v -0.000000 1.558312 -0.331085
v 0.338503 1.683478 -0.267144
v 0.000000 2.101407 0.409348
v 0.406414 1.932706 0.334786
v -0.000000 2.101407 -0.167704
v 0.406413 1.932707 -0.167704
v 0.000000 2.350346 0.334786
v 0.454893 2.266548 0.298160
v -0.000000 2.326155 -0.072802
v 0.454893 2.258377 -0.049590
v 0.164244 2.462649 0.299006
v 0.125346 2.544165 0.014434
v 0.268927 2.376036 -0.019948
v 0.268928 2.405327 0.316473
v 0.000000 2.558970 0.015836
v 0.000000 2.431083 0.317320
v 0.540658 1.689764 0.223780
v 0.603054 1.689764 -0.125748
v 0.736672 1.925935 0.221576
v 0.711725 1.925935 -0.086436
v 0.664340 1.175787 0.438773
v 0.696717 1.175787 0.180399
v 0.831240 1.298337 0.463319
v 0.863617 1.298337 0.204945
v 0.000000 2.467628 0.400934
v 0.223272 2.542804 0.364787
v 0.094208 2.665672 0.053512
v 0.000000 2.611595 0.010712
v 0.000000 2.798514 0.379595
v 0.196955 2.671338 0.343447
v 0.112263 2.735898 0.129969
v 0.000000 2.746956 0.032326
v 0.000000 2.242511 0.564943
v 0.258887 2.451339 0.513028
v 0.000000 2.707049 0.587595
v 0.232569 2.579873 0.551447
v 0.000000 2.391089 0.659513
v 0.172853 2.490880 0.628891
v 0.000000 2.617236 0.658438
v 0.148118 2.554421 0.644198
vt 0.551551 0.958932
vt 0.551551 0.832115
vt 0.658803 0.833197
vt 0.408293 0.816204
vt 0.520283 0.816204
vt 0.469926 0.871294
vt 0.578596 0.079540
vt 0.446077 0.077782
vt 0.456486 0.035928
vt 0.416108 0.783212
vt 0.193398 0.076659
vt 0.202690 0.117325
vt 0.070282 0.117325
vt 0.703693 0.476183
vt 0.835768 0.476183
vt 0.846480 0.518768
vt 0.088247 0.187028
vt 0.177889 0.187028
vt 0.179934 0.250699
vt 0.555241 0.148877
vt 0.465524 0.147687
vt 0.829697 0.586321
vt 0.762003 0.586321
vt 0.798265 0.646744
vt 0.798265 0.680170
vt 0.730571 0.680170
vt 0.492858 0.917210
vt 0.443470 0.917210
vt 0.556844 0.208724
vt 0.467128 0.207534
vt 0.312708 0.817713
vt 0.350270 0.868347
vt 0.234482 0.868339
vt 0.492858 0.962950
vt 0.443470 0.962950
vt 0.561807 0.242033
vt 0.184663 0.310277
vt 0.084550 0.283704
vt 0.161851 0.368598
vt 0.147447 0.432617
vt 0.037392 0.404269
vt 0.605014 0.304758
vt 0.482878 0.329903
vt 0.849507 0.744827
vt 0.679797 0.744827
vt 0.339513 0.919937
vt 0.332420 0.963001
vt 0.243309 0.962995
vt 0.605014 0.370403
vt 0.202495 0.978498
vt 0.046314 0.962074
vt 0.089589 0.882279
vt 0.493620 0.396209
vt 0.602229 0.486848
vt 0.166485 0.488289
vt 0.041817 0.524104
vt 0.693758 0.361705
vt 0.686322 0.291174
vt 0.769386 0.291926
vt 0.530097 0.551329
vt 0.474637 0.449444
vt 0.111472 0.586510
vt 0.600204 0.540414
vt 0.599669 0.557755
vt 0.556728 0.564025
vt 0.040930 0.574453
vt 0.074646 0.623158
vt 0.773853 0.364777
vt 0.769669 0.393507
vt 0.218783 0.437878
vt 0.250517 0.337265
vt 0.293913 0.363964
vt 0.269750 0.489109
vt 0.460516 0.520821
vt 0.386126 0.447635
vt 0.679304 0.180971
vt 0.740464 0.194241
vt 0.029156 0.724595
vt 0.029375 0.657388
vt 0.110864 0.657654
vt 0.756280 0.098213
vt 0.438533 0.397556
vt 0.368696 0.311768
vt 0.110645 0.724861
vt 0.800641 0.880058
vt 0.825302 0.895164
vt 0.787130 0.916842
vt 0.866484 0.819817
vt 0.858938 0.769278
vt 0.883962 0.764698
vt 0.787725 0.846819
vt 0.764978 0.885445
vt 0.896140 0.838631
vt 0.882882 0.946502
vt 0.885570 0.874029
vt 0.946823 0.824099
vt 0.949675 0.859702
vt 0.950616 0.943959
vt 0.949051 0.725485
vt 0.967709 0.362489
vt 0.967709 0.459348
vt 0.889063 0.429810
vt 0.952659 0.509816
vt 0.845375 0.442350
vt 0.833210 0.378226
vt 0.883323 0.407248
vt 0.951579 0.293826
vt 0.420538 0.871294
vt 0.082333 0.076659
vt 0.090293 0.250699
vt 0.730571 0.646744
vt 0.460980 0.267460
vt 0.039312 0.340495
vt 0.225677 0.919929
vt 0.200839 0.880660
vt 0.180703 0.560708
vt 0.042215 0.626340
vt 0.700870 0.410898
vt 0.818286 0.105047
vt 0.411797 0.286254
vt 0.658803 0.960014
vt 0.567643 0.037402
vt 0.512467 0.783212
vt 0.692981 0.518768
vt 0.262624 0.817710
vt 0.757796 0.873257
vn 0.000000 -1.000000 0.000000
vn -0.955500 0.295100 -0.000000
vn -0.000000 -0.220800 0.975300
vn -0.978900 -0.204600 -0.000000
vn 0.000000 -0.220800 -0.975300
vn 0.978900 -0.204600 0.000000
vn 0.000000 0.420700 -0.907200
vn -0.000000 0.669900 0.742500
vn 0.000000 0.214300 -0.976800
vn 0.978800 0.204700 0.000000
vn 0.991200 -0.132600 0.000000
vn 1.000000 -0.000000 0.000000
vn -1.000000 0.000000 -0.000000
vn -0.000000 -0.420700 0.907200
vn -0.970900 0.239500 -0.000000
vn -0.997300 -0.073900 -0.000000
vn -0.000000 0.000000 1.000000
vn 0.000000 0.000000 -1.000000
vn -0.226800 -0.119700 -0.966600
vn -0.174100 -0.538800 0.824200
vn -0.147900 -0.439300 -0.886100
vn 0.958000 -0.286800 -0.000000
vn -0.964800 -0.262900 -0.000000
vn -0.987600 0.157000 -0.000000
vn -0.048000 -0.148400 0.987800
vn 0.875300 -0.483700 -0.000000
vn -0.255500 0.127700 0.958300
vn -0.138700 0.334200 -0.932300
vn -0.532300 0.846300 -0.019900
vn -0.220200 0.101600 0.970100
vn -0.146700 0.353400 -0.923900
vn -0.068200 0.211000 0.975100
vn -0.129300 0.303400 -0.944000
vn -0.488600 0.869200 -0.075700
vn -0.418400 -0.407300 -0.811800
vn -0.257900 0.042000 -0.965300
vn -0.324800 0.056400 0.944100
vn -0.786300 0.614500 -0.063700
vn -0.583300 -0.809000 0.073100
vn -0.976700 0.199600 -0.079100
vn 0.342200 0.292400 0.893000
vn 0.952800 -0.279200 -0.119400
vn -0.588700 0.521300 -0.617800
vn -0.215600 -0.894800 0.391100
vn -0.214500 0.348400 -0.912500
vn -0.853300 -0.255300 -0.454600
vn -0.219700 0.965000 -0.143300
vn -0.934300 0.136600 -0.329300
vn -0.969600 0.226400 -0.093200
vn -0.493800 0.824000 0.277800
vn -0.298600 -0.562000 -0.771400
vn -0.097700 0.004700 0.995200
vn -0.454700 0.662100 0.595700
vn -0.800300 -0.015300 0.599500
vn -0.417500 -0.487900 0.766600
vn 0.955500 0.295100 -0.000000
vn -0.978800 0.204700 0.000000
vn -0.991200 -0.132600 0.000000
vn 0.970900 0.239500 -0.000000
vn 0.997300 -0.073900 -0.000000
vn 0.226800 -0.119700 -0.966600
vn 0.174100 -0.538800 0.824200
vn 0.279600 -0.506400 -0.815700
vn -0.958000 -0.286800 0.000000
vn 0.964800 -0.262900 -0.000000
vn 0.987600 0.157000 -0.000000
vn 0.218200 0.221800 0.950400
vn -0.758600 -0.637400 -0.135400
vn 0.218200 0.096300 0.971100
vn 0.138700 0.334200 -0.932300
vn 0.532300 0.846300 -0.019900
vn 0.006600 0.286900 0.957900
vn 0.060300 0.332400 -0.941200
vn 0.068200 0.211000 0.975100
vn 0.031600 0.355600 -0.934100
vn 0.765900 0.638100 0.078100
vn 0.418400 -0.407300 -0.811800
vn 0.257900 0.042000 -0.965300
vn 0.309500 -0.248300 0.917900
vn 0.786300 0.614500 -0.063700
vn 0.583300 -0.809000 0.073100
vn 0.973500 0.193700 0.122000
vn -0.344600 0.290500 0.892700
vn -0.952800 -0.279200 -0.119400
vn 0.588700 0.521300 -0.617800
vn 0.342100 -0.733700 0.587100
vn 0.214500 0.348400 -0.912500
vn 0.853300 -0.255300 -0.454600
vn 0.546800 0.836500 0.036100
vn 0.934300 0.136600 -0.329300
vn 0.969600 0.226400 -0.093200
vn 0.493800 0.824000 0.277800
vn 0.298600 -0.562000 -0.771400
vn 0.097700 0.004700 0.995200
vn 0.320300 0.586700 0.743800
vn 0.718700 0.114600 0.685800
vn 0.417500 -0.487900 0.766600
vn -0.196100 -0.182800 -0.963400
vn -0.182700 -0.542700 0.819800
vn -0.279600 -0.506400 -0.815700
vn -0.218200 0.221800 0.950400
vn 0.758600 -0.637400 -0.135400
vn -0.218200 0.096300 0.971100
vn -0.074200 0.287300 -0.955000
vn -0.592200 0.802800 -0.069900
vn -0.160000 0.084700 0.983500
vn -0.006600 0.286900 0.957900
vn -0.108300 0.386700 -0.915800
vn -0.060300 0.332400 -0.941200
vn -0.004000 0.298200 0.954500
vn -0.031600 0.355600 -0.934100
vn -0.765900 0.638100 0.078100
vn -0.657300 -0.180600 -0.731700
vn -0.251800 0.296600 -0.921200
vn -0.309500 -0.248300 0.917900
vn -0.768800 0.639400 -0.015000
vn -0.973500 0.193700 0.122000
vn 0.344600 0.290500 0.892700
vn 0.947000 -0.273300 -0.169000
vn -0.337100 0.148400 -0.929700
vn -0.342100 -0.733700 0.587100
vn 0.022600 -0.096900 -0.995000
vn -0.962700 0.264700 -0.055800
vn -0.546800 0.836500 0.036100
vn -0.933000 0.126800 -0.336800
vn -0.978800 0.186200 -0.085700
vn -0.553700 0.762300 0.335200
vn -0.185900 -0.815600 -0.547900
vn -0.247700 -0.134700 0.959400
vn -0.320300 0.586700 0.743800
vn -0.718700 0.114600 0.685800
vn -0.567900 -0.552400 0.610200
vn 0.196100 -0.182800 -0.963400
vn 0.182700 -0.542700 0.819800
vn 0.147900 -0.439300 -0.886100
vn 0.048000 -0.148400 0.987800
vn -0.875300 -0.483700 -0.000000
vn 0.255500 0.127700 0.958300
vn 0.074200 0.287300 -0.955000
vn 0.592200 0.802800 -0.069900
vn 0.220200 0.101600 0.970100
vn 0.160000 0.084700 0.983500
vn 0.146700 0.353400 -0.923900
vn 0.108300 0.386700 -0.915800
vn 0.004000 0.298200 0.954500
vn 0.129300 0.303400 -0.944000
vn 0.488600 0.869200 -0.075700
vn 0.657300 -0.180600 -0.731700
vn 0.251800 0.296600 -0.921200
vn 0.324800 0.056400 0.944100
vn 0.768800 0.639400 -0.015000
vn 0.976700 0.199600 -0.079100
vn -0.342200 0.292400 0.893000
vn -0.947000 -0.273300 -0.169000
vn 0.337100 0.148400 -0.929700
vn 0.215600 -0.894800 0.391100
vn -0.022600 -0.096900 -0.995000
vn 0.962700 0.264700 -0.055800
vn 0.219700 0.965000 -0.143300
vn 0.933000 0.126800 -0.336800
vn 0.978800 0.186200 -0.085700
vn 0.553700 0.762300 0.335200
vn 0.185900 -0.815600 -0.547900
vn 0.247700 -0.134700 0.959400
vn 0.454700 0.662100 0.595700
vn 0.800300 -0.015300 0.599500
vn 0.567900 -0.552400 0.610200
usemtl Material
s off
f 2/1/1 3/2/1 4/3/1
f 7/4/2 6/5/2 10/6/2
f 5/7/3 6/8/3 2/9/3
f 6/5/4 7/4/4 3/10/4
f 3/11/5 7/12/5 8/13/5
f 1/14/6 4/15/6 8/16/6
f 11/17/7 12/18/7 16/19/7
f 5/7/8 9/20/8 10/21/8
f 8/13/9 7/12/9 12/18/9
f 8/16/10 11/22/10 9/23/10
f 15/24/11 19/25/11 17/26/11
f 9/23/12 11/22/12 15/24/12
f 10/6/13 14/27/13 16/28/13
f 9/20/14 13/29/14 14/30/14
f 18/31/15 21/32/15 22/33/15
f 14/27/16 18/34/16 20/35/16
f 14/30/17 13/29/17 17/36/17
f 16/19/18 20/37/18 19/38/18
f 22/39/19 24/40/19 75/41/19
f 17/36/20 69/42/20 21/43/20
f 19/38/21 20/37/21 22/39/21
f 19/25/22 71/44/22 69/45/22
f 23/46/23 25/47/23 26/48/23
f 22/33/24 21/32/24 23/46/24
f 21/43/25 69/42/25 73/49/25
f 26/50/26 25/51/26 33/52/26
f 23/53/27 73/49/27 77/54/27
f 24/40/28 26/55/28 79/56/28
f 31/57/29 28/58/29 27/59/29
f 77/54/30 32/60/30 25/61/30
f 26/55/31 31/62/31 79/56/31
f 81/63/32 90/64/32 29/65/32
f 83/66/33 31/62/33 30/67/33
f 31/57/34 32/68/34 29/69/34
f 34/70/35 38/71/35 40/72/35
f 26/55/36 34/70/36 36/73/36
f 25/61/37 27/74/37 35/75/37
f 28/58/38 36/76/38 35/77/38
f 37/78/39 39/79/39 40/80/39
f 35/77/40 36/76/40 40/81/40
f 33/82/41 35/75/41 39/83/41
f 33/52/42 37/78/42 38/84/42
f 42/85/43 44/86/43 106/87/43
f 29/88/44 90/89/44 99/90/44
f 30/91/45 42/85/45 102/92/45
f 29/88/46 41/93/46 42/85/46
f 103/94/47 106/87/47 44/86/47
f 41/93/48 43/95/48 44/86/48
f 41/93/49 45/96/49 46/97/49
f 43/95/50 46/97/50 109/98/50
f 99/90/51 107/99/51 45/96/51
f 111/100/52 113/101/52 48/102/52
f 109/103/53 46/104/53 48/102/53
f 46/104/54 45/105/54 47/106/54
f 107/107/55 111/100/55 47/106/55
f 52/3/1 51/2/1 50/1/1
f 55/4/56 60/108/56 58/6/56
f 50/9/3 54/8/3 53/7/3
f 51/10/6 55/4/6 54/5/6
f 51/11/5 52/109/5 56/13/5
f 56/16/4 52/15/4 49/14/4
f 63/110/7 64/19/7 60/18/7
f 58/21/8 57/20/8 53/7/8
f 56/13/9 59/17/9 60/18/9
f 57/23/57 59/22/57 56/16/57
f 65/26/58 67/25/58 63/24/58
f 57/23/13 61/111/13 63/24/13
f 64/28/12 62/27/12 58/6/12
f 62/30/14 61/29/14 57/20/14
f 72/33/59 70/32/59 66/31/59
f 68/35/60 66/34/60 62/27/60
f 62/30/17 66/112/17 65/36/17
f 67/38/18 68/37/18 64/19/18
f 75/41/61 76/40/61 72/39/61
f 70/43/62 69/42/62 65/36/62
f 67/38/63 71/113/63 72/39/63
f 69/45/64 71/44/64 67/25/64
f 80/48/65 78/47/65 74/46/65
f 72/33/66 76/114/66 74/46/66
f 70/43/67 74/53/67 73/49/67
f 80/50/68 92/115/68 91/52/68
f 74/53/69 78/61/69 77/54/69
f 79/56/70 80/55/70 76/40/70
f 82/59/71 84/58/71 87/57/71
f 88/60/72 81/63/72 77/54/72
f 87/62/73 84/116/73 80/55/73
f 85/65/74 90/64/74 81/63/74
f 83/66/75 89/117/75 86/67/75
f 87/57/76 86/118/76 85/69/76
f 98/72/77 96/71/77 92/70/77
f 94/73/78 92/70/78 80/55/78
f 78/61/79 91/82/79 93/75/79
f 93/77/80 94/76/80 84/58/80
f 98/80/81 97/79/81 95/78/81
f 93/77/82 97/119/82 98/81/82
f 91/82/83 95/120/83 97/83/83
f 96/84/84 95/78/84 91/52/84
f 106/87/85 105/86/85 101/85/85
f 85/88/86 100/93/86 99/90/86
f 102/92/87 101/85/87 86/91/87
f 101/85/88 100/93/88 85/88/88
f 103/94/89 104/95/89 105/86/89
f 105/86/90 104/95/90 100/93/90
f 110/97/91 108/96/91 100/93/91
f 109/98/92 110/97/92 104/95/92
f 108/96/93 107/99/93 99/90/93
f 114/102/94 113/101/94 111/100/94
f 109/103/95 113/101/95 114/102/95
f 110/104/96 114/102/96 112/106/96
f 112/106/97 111/100/97 107/107/97
f 1/121/1 2/1/1 4/3/1
f 12/108/2 7/4/2 10/6/2
f 1/122/3 5/7/3 2/9/3
f 2/123/4 6/5/4 3/10/4
f 4/109/5 3/11/5 8/13/5
f 5/124/6 1/14/6 8/16/6
f 15/110/7 11/17/7 16/19/7
f 6/8/8 5/7/8 10/21/8
f 11/17/9 8/13/9 12/18/9
f 5/124/10 8/16/10 9/23/10
f 13/111/11 15/24/11 17/26/11
f 13/111/12 9/23/12 15/24/12
f 12/108/13 10/6/13 16/28/13
f 10/21/14 9/20/14 14/30/14
f 20/125/15 18/31/15 22/33/15
f 16/28/16 14/27/16 20/35/16
f 18/112/17 14/30/17 17/36/17
f 15/110/18 16/19/18 19/38/18
f 71/113/98 22/39/98 75/41/98
f 18/112/99 17/36/99 21/43/99
f 71/113/100 19/38/100 22/39/100
f 17/26/22 19/25/22 69/45/22
f 24/114/23 23/46/23 26/48/23
f 24/114/24 22/33/24 23/46/24
f 23/53/101 21/43/101 73/49/101
f 34/115/102 26/50/102 33/52/102
f 25/61/103 23/53/103 77/54/103
f 75/41/104 24/40/104 79/56/104
f 32/68/105 31/57/105 27/59/105
f 27/74/106 25/61/106 32/60/106
f 77/54/107 81/63/107 32/60/107
f 83/66/108 79/56/108 31/62/108
f 26/55/109 28/116/109 31/62/109
f 32/60/110 81/63/110 29/65/110
f 89/117/111 83/66/111 30/67/111
f 30/118/112 31/57/112 29/69/112
f 36/73/113 34/70/113 40/72/113
f 28/116/114 26/55/114 36/73/114
f 33/82/115 25/61/115 35/75/115
f 27/59/116 28/58/116 35/77/116
f 38/84/39 37/78/39 40/80/39
f 39/119/117 35/77/117 40/81/117
f 37/120/118 33/82/118 39/83/118
f 34/115/119 33/52/119 38/84/119
f 102/92/120 42/85/120 106/87/120
f 41/93/121 29/88/121 99/90/121
f 89/126/122 30/91/122 102/92/122
f 30/91/123 29/88/123 42/85/123
f 43/95/124 103/94/124 44/86/124
f 42/85/125 41/93/125 44/86/125
f 43/95/126 41/93/126 46/97/126
f 103/94/127 43/95/127 109/98/127
f 41/93/128 99/90/128 45/96/128
f 47/106/129 111/100/129 48/102/129
f 113/101/130 109/103/130 48/102/130
f 48/102/131 46/104/131 47/106/131
f 45/105/132 107/107/132 47/106/132
f 49/121/1 52/3/1 50/1/1
f 54/5/56 55/4/56 58/6/56
f 49/122/3 50/9/3 53/7/3
f 50/123/6 51/10/6 54/5/6
f 55/12/5 51/11/5 56/13/5
f 53/124/4 56/16/4 49/14/4
f 59/17/7 63/110/7 60/18/7
f 54/8/8 58/21/8 53/7/8
f 55/12/9 56/13/9 60/18/9
f 53/124/57 57/23/57 56/16/57
f 61/111/58 65/26/58 63/24/58
f 59/22/13 57/23/13 63/24/13
f 60/108/12 64/28/12 58/6/12
f 58/21/14 62/30/14 57/20/14
f 68/125/59 72/33/59 66/31/59
f 64/28/60 68/35/60 62/27/60
f 61/29/17 62/30/17 65/36/17
f 63/110/18 67/38/18 64/19/18
f 71/113/133 75/41/133 72/39/133
f 66/112/134 70/43/134 65/36/134
f 68/37/135 67/38/135 72/39/135
f 65/26/64 69/45/64 67/25/64
f 76/114/65 80/48/65 74/46/65
f 70/32/66 72/33/66 74/46/66
f 69/42/136 70/43/136 73/49/136
f 78/51/137 80/50/137 91/52/137
f 73/49/138 74/53/138 77/54/138
f 75/41/139 79/56/139 76/40/139
f 88/68/140 82/59/140 87/57/140
f 77/54/141 78/61/141 88/60/141
f 82/74/142 88/60/142 78/61/142
f 80/55/143 79/56/143 87/62/143
f 83/66/144 87/62/144 79/56/144
f 88/60/145 85/65/145 81/63/145
f 87/62/146 83/66/146 86/67/146
f 88/68/147 87/57/147 85/69/147
f 94/73/148 98/72/148 92/70/148
f 84/116/149 94/73/149 80/55/149
f 82/74/150 78/61/150 93/75/150
f 82/59/151 93/77/151 84/58/151
f 96/84/81 98/80/81 95/78/81
f 94/76/152 93/77/152 98/81/152
f 93/75/153 91/82/153 97/83/153
f 92/115/154 96/84/154 91/52/154
f 102/92/155 106/87/155 101/85/155
f 90/89/156 85/88/156 99/90/156
f 89/126/157 102/92/157 86/91/157
f 86/91/158 101/85/158 85/88/158
f 106/87/159 103/94/159 105/86/159
f 101/85/160 105/86/160 100/93/160
f 104/95/161 110/97/161 100/93/161
f 103/94/162 109/98/162 104/95/162
f 100/93/163 108/96/163 99/90/163
f 112/106/164 114/102/164 111/100/164
f 110/104/165 109/103/165 114/102/165
f 108/105/166 110/104/166 112/106/166
f 108/105/167 112/106/167 107/107/167
